<svg width="97" height="25" viewBox="0 0 97 25" fill="none" xmlns="http://www.w3.org/2000/svg">
<path d="M14.7266 0L0 8.15625L14.7266 15.8594L26.2812 9.51562V18.5781H29V8.15625L14.7266 0Z" fill="#08268D"/>
<path d="M14.5 18.5781L5.4375 13.5938V18.8047L14.5 24.0156L23.5625 18.8047V13.5938L14.5 18.5781Z" fill="#08268D"/>
<path d="M49.8081 13.3477L52.207 4.91406H53.3691L52.6968 8.19287L50.1152 17H48.9614L49.8081 13.3477ZM47.3262 4.91406L49.2354 13.1816L49.8081 17H48.6626L45.7324 4.91406H47.3262ZM56.4736 13.1733L58.3413 4.91406H59.9434L57.0215 17H55.876L56.4736 13.1733ZM53.5435 4.91406L55.876 13.3477L56.7227 17H55.5688L53.0786 8.19287L52.3979 4.91406H53.5435ZM66.8164 14.9248V8.01855H68.3604V17H66.8911L66.8164 14.9248ZM67.1069 13.0322L67.7461 13.0156C67.7461 13.6133 67.6825 14.1667 67.5552 14.6758C67.4334 15.1794 67.2342 15.6165 66.9575 15.9873C66.6808 16.3581 66.3184 16.6486 65.8701 16.8589C65.4219 17.0636 64.8768 17.166 64.2349 17.166C63.7977 17.166 63.3965 17.1024 63.0312 16.9751C62.6715 16.8478 62.3617 16.6514 62.1016 16.3857C61.8415 16.1201 61.6395 15.7743 61.4956 15.3481C61.3573 14.922 61.2881 14.4102 61.2881 13.8125V8.01855H62.8237V13.8291C62.8237 14.2331 62.868 14.5679 62.9565 14.8335C63.0506 15.0936 63.1751 15.3011 63.3301 15.4561C63.4906 15.6055 63.6676 15.7106 63.8613 15.7715C64.0605 15.8324 64.2653 15.8628 64.4756 15.8628C65.1286 15.8628 65.646 15.7383 66.0278 15.4893C66.4097 15.2347 66.6836 14.8944 66.8496 14.4683C67.0212 14.0366 67.1069 13.5579 67.1069 13.0322ZM76.3623 15.2568V4.25H77.9062V17H76.4951L76.3623 15.2568ZM70.3193 12.6089V12.4346C70.3193 11.7484 70.4023 11.1258 70.5684 10.5669C70.7399 10.0024 70.9806 9.51823 71.2905 9.11426C71.606 8.71029 71.9795 8.40039 72.4111 8.18457C72.8483 7.96322 73.3353 7.85254 73.8721 7.85254C74.4365 7.85254 74.929 7.95215 75.3496 8.15137C75.7757 8.34505 76.1354 8.63005 76.4287 9.00635C76.7275 9.37712 76.9627 9.82536 77.1343 10.3511C77.3058 10.8768 77.4248 11.4717 77.4912 12.1357V12.8994C77.4303 13.5579 77.3114 14.1501 77.1343 14.6758C76.9627 15.2015 76.7275 15.6497 76.4287 16.0205C76.1354 16.3913 75.7757 16.6763 75.3496 16.8755C74.9235 17.0692 74.4255 17.166 73.8555 17.166C73.3298 17.166 72.8483 17.0526 72.4111 16.8257C71.9795 16.5988 71.606 16.2806 71.2905 15.8711C70.9806 15.4616 70.7399 14.9801 70.5684 14.4268C70.4023 13.8678 70.3193 13.2619 70.3193 12.6089ZM71.8633 12.4346V12.6089C71.8633 13.0571 71.9076 13.4777 71.9961 13.8706C72.0902 14.2635 72.234 14.6094 72.4277 14.9082C72.6214 15.207 72.8677 15.4422 73.1665 15.6138C73.4653 15.7798 73.8223 15.8628 74.2373 15.8628C74.7464 15.8628 75.1642 15.7549 75.4907 15.5391C75.8228 15.3232 76.0884 15.0382 76.2876 14.6841C76.4868 14.3299 76.6418 13.9453 76.7524 13.5303V11.5298C76.686 11.2254 76.5892 10.9321 76.4619 10.6499C76.3402 10.3621 76.1797 10.1076 75.9805 9.88623C75.7868 9.65934 75.5461 9.47949 75.2583 9.34668C74.9761 9.21387 74.6413 9.14746 74.2539 9.14746C73.8333 9.14746 73.4709 9.236 73.1665 9.41309C72.8677 9.58464 72.6214 9.82259 72.4277 10.127C72.234 10.4258 72.0902 10.7744 71.9961 11.1729C71.9076 11.5658 71.8633 11.9863 71.8633 12.4346ZM85.958 15.2568V4.25H87.502V17H86.0908L85.958 15.2568ZM79.915 12.6089V12.4346C79.915 11.7484 79.998 11.1258 80.1641 10.5669C80.3356 10.0024 80.5763 9.51823 80.8862 9.11426C81.2017 8.71029 81.5752 8.40039 82.0068 8.18457C82.444 7.96322 82.931 7.85254 83.4678 7.85254C84.0322 7.85254 84.5247 7.95215 84.9453 8.15137C85.3714 8.34505 85.7311 8.63005 86.0244 9.00635C86.3232 9.37712 86.5584 9.82536 86.73 10.3511C86.9015 10.8768 87.0205 11.4717 87.0869 12.1357V12.8994C87.026 13.5579 86.9071 14.1501 86.73 14.6758C86.5584 15.2015 86.3232 15.6497 86.0244 16.0205C85.7311 16.3913 85.3714 16.6763 84.9453 16.8755C84.5192 17.0692 84.0212 17.166 83.4512 17.166C82.9255 17.166 82.444 17.0526 82.0068 16.8257C81.5752 16.5988 81.2017 16.2806 80.8862 15.8711C80.5763 15.4616 80.3356 14.9801 80.1641 14.4268C79.998 13.8678 79.915 13.2619 79.915 12.6089ZM81.459 12.4346V12.6089C81.459 13.0571 81.5033 13.4777 81.5918 13.8706C81.6859 14.2635 81.8298 14.6094 82.0234 14.9082C82.2171 15.207 82.4634 15.4422 82.7622 15.6138C83.061 15.7798 83.418 15.8628 83.833 15.8628C84.3421 15.8628 84.7599 15.7549 85.0864 15.5391C85.4185 15.3232 85.6841 15.0382 85.8833 14.6841C86.0825 14.3299 86.2375 13.9453 86.3481 13.5303V11.5298C86.2817 11.2254 86.1849 10.9321 86.0576 10.6499C85.9359 10.3621 85.7754 10.1076 85.5762 9.88623C85.3825 9.65934 85.1418 9.47949 84.854 9.34668C84.5718 9.21387 84.237 9.14746 83.8496 9.14746C83.429 9.14746 83.0666 9.236 82.7622 9.41309C82.4634 9.58464 82.2171 9.82259 82.0234 10.127C81.8298 10.4258 81.6859 10.7744 81.5918 11.1729C81.5033 11.5658 81.459 11.9863 81.459 12.4346ZM92.416 16.0703L94.9146 8.01855H96.5581L92.9556 18.3862C92.8726 18.6076 92.7619 18.8455 92.6235 19.1001C92.4907 19.3602 92.3192 19.6064 92.1089 19.8389C91.8986 20.0713 91.644 20.2594 91.3452 20.4033C91.0519 20.5527 90.7005 20.6274 90.291 20.6274C90.1693 20.6274 90.0143 20.6108 89.8262 20.5776C89.638 20.5444 89.5052 20.5168 89.4277 20.4946L89.4194 19.2495C89.4637 19.255 89.5329 19.2606 89.627 19.2661C89.7266 19.2772 89.7957 19.2827 89.8345 19.2827C90.1831 19.2827 90.4792 19.2357 90.7227 19.1416C90.9661 19.0531 91.1709 18.9009 91.3369 18.6851C91.5085 18.4748 91.6551 18.1842 91.7769 17.8135L92.416 16.0703ZM90.5815 8.01855L92.9141 14.9912L93.3125 16.6099L92.2085 17.1743L88.9048 8.01855H90.5815Z" fill="#08268D"/>
</svg>
